<?xml version="1.0" ?><svg data-name="Layer 1" id="Layer_1" viewBox="0 0 500 500" xmlns="http://www.w3.org/2000/svg" width="100px" height="100px"><defs><style>.cls-1{fill:#49494a;}.cls-2{fill:#ffc43d;}.cls-3{fill:none;stroke:#000;stroke-linecap:round;stroke-linejoin:round;stroke-width:20px;}.cls-4{fill:#faae17;}</style></defs><title/><path class="cls-1" d="M370.08,277.67,362.45,313H315.23l-7.63-35.29a119.26,119.26,0,0,1-28.51-11.82l-9.86,6.35A80,80,0,1,1,229,230.88l5.93-9.21a119.24,119.24,0,0,1-11.81-28.51l-35.29-7.63V138.31l35.29-7.63c.75-2.8,1.61-5.54,2.56-8.25l-1-4.43h-58l-9.37,43.36a145.92,145.92,0,0,0-35,14.51L85,151.84,65.45,171.37l-2,1.95L44,192.86l24,37.29a146.57,146.57,0,0,0-14.51,35l-43.36,9.37v58l43.36,9.37A146.74,146.74,0,0,0,68,377L44,414.26l19.53,19.53,2,2L85,455.28l37.29-24a146.33,146.33,0,0,0,35,14.51l9.37,43.36h58l9.38-43.36a146.26,146.26,0,0,0,35-14.51l37.29,24,19.54-19.53,1.95-2,19.54-19.53-24-37.29a146.36,146.36,0,0,0,14.52-35l43.35-9.37v-58l-.84-.18C377,275.61,373.59,276.72,370.08,277.67Z"/><path class="cls-2" d="M454.59,130.68a119.24,119.24,0,0,0-11.81-28.51l19.56-30.36-15.9-15.9-1.59-1.59-15.91-15.9L398.59,58a119.24,119.24,0,0,0-28.51-11.81l-7.63-35.29H315.23L307.6,46.17A119.24,119.24,0,0,0,279.09,58L248.73,38.42l-15.9,15.9-1.59,1.59-15.9,15.9,19.56,30.36a119.24,119.24,0,0,0-11.81,28.51l-35.29,7.63v47.22l35.29,7.63a119.24,119.24,0,0,0,11.81,28.51L215.34,252l15.9,15.9,1.59,1.59,15.9,15.91,30.36-19.57a119.26,119.26,0,0,0,28.51,11.82L315.23,313h47.22l7.63-35.29a119.26,119.26,0,0,0,28.51-11.82l30.35,19.57,15.91-15.91,1.59-1.59,15.9-15.9-19.56-30.35a119.24,119.24,0,0,0,11.81-28.51l35.29-7.63V138.31Z"/><path class="cls-3" d="M454.59,130.68a119.24,119.24,0,0,0-11.81-28.51l19.56-30.36-15.9-15.9-1.59-1.59-15.91-15.9L398.59,58a119.24,119.24,0,0,0-28.51-11.81l-7.63-35.29H315.23L307.6,46.17A119.24,119.24,0,0,0,279.09,58L248.73,38.42l-15.9,15.9-1.59,1.59-15.9,15.9,19.56,30.36a119.24,119.24,0,0,0-11.81,28.51l-35.29,7.63v47.22l35.29,7.63a119.24,119.24,0,0,0,11.81,28.51L215.34,252l15.9,15.9,1.59,1.59,15.9,15.91,30.36-19.57a119.26,119.26,0,0,0,28.51,11.82L315.23,313h47.22l7.63-35.29a119.26,119.26,0,0,0,28.51-11.82l30.35,19.57,15.91-15.91,1.59-1.59,15.9-15.9-19.56-30.35a119.24,119.24,0,0,0,11.81-28.51l35.29-7.63V138.31Z"/><path class="cls-3" d="M370.08,277.67,362.45,313H315.23l-7.63-35.29a119.26,119.26,0,0,1-28.51-11.82l-9.86,6.35A80,80,0,1,1,229,230.88l5.93-9.21a119.24,119.24,0,0,1-11.81-28.51l-35.29-7.63V138.31l35.29-7.63c.75-2.8,1.61-5.54,2.56-8.25l-1-4.43h-58l-9.37,43.36a145.92,145.92,0,0,0-35,14.51L85,151.84,65.45,171.37l-2,1.95L44,192.86l24,37.29a146.57,146.57,0,0,0-14.51,35l-43.36,9.37v58l43.36,9.37A146.74,146.74,0,0,0,68,377L44,414.26l19.53,19.53,2,2L85,455.28l37.29-24a146.33,146.33,0,0,0,35,14.51l9.37,43.36h58l9.38-43.36a146.26,146.26,0,0,0,35-14.51l37.29,24,19.54-19.53,1.95-2,19.54-19.53-24-37.29a146.36,146.36,0,0,0,14.52-35l43.35-9.37v-58l-.84-.18C377,275.61,373.59,276.72,370.08,277.67Z"/><circle class="cls-4" cx="338.84" cy="160.55" r="83.97"/><polyline class="cls-3" points="297.36 165.47 326.16 193 384.11 135.05"/></svg>